{
    "asset" : {
        "generator" : "Khronos glTF Blender I/O v1.6.16",
        "version" : "2.0"
    },
    "scene" : 0,
    "scenes" : [
        {
            "name" : "Scene",
            "nodes" : [
                0,
                1,
                2,
                3,
                4,
                5,
                6
            ]
        }
    ],
    "nodes" : [
        {
            "mesh" : 0,
            "name" : "body_base",
            "rotation" : [
                0,
                0.7071068286895752,
                0,
                0.7071068286895752
            ],
            "scale" : [
                1,
                -1,
                1
            ]
        },
        {
            "mesh" : 1,
            "name" : "head_base",
            "rotation" : [
                0,
                0.7071068286895752,
                0,
                0.7071068286895752
            ],
            "scale" : [
                1,
                -1,
                1
            ]
        },
        {
            "mesh" : 2,
            "name" : "leg_front.L",
            "rotation" : [
                0,
                0.7071068286895752,
                0,
                0.7071068286895752
            ],
            "scale" : [
                1,
                -1,
                1
            ]
        },
        {
            "mesh" : 3,
            "name" : "leg_front.R",
            "rotation" : [
                0,
                0.7071068286895752,
                0,
                0.7071068286895752
            ],
            "scale" : [
                1,
                -1,
                1
            ]
        },
        {
            "mesh" : 4,
            "name" : "leg_rear.L",
            "rotation" : [
                0,
                0.7071068286895752,
                0,
                0.7071068286895752
            ],
            "scale" : [
                1,
                -1,
                1
            ]
        },
        {
            "mesh" : 5,
            "name" : "leg_rear.R",
            "rotation" : [
                0,
                0.7071068286895752,
                0,
                0.7071068286895752
            ],
            "scale" : [
                1,
                -1,
                1
            ],
            "translation" : [
                0.6947553157806396,
                0,
                0.6947552561759949
            ]
        },
        {
            "mesh" : 6,
            "name" : "body_fin_low",
            "rotation" : [
                0,
                0.7071068286895752,
                0,
                0.7071068286895752
            ],
            "scale" : [
                1,
                -1,
                1
            ]
        }
    ],
    "materials" : [
        {
            "doubleSided" : true,
            "name" : "lambert1",
            "pbrMetallicRoughness" : {
                "baseColorFactor" : [
                    0.7467532753944397,
                    0.7467532753944397,
                    0.7467532753944397,
                    1
                ],
                "metallicFactor" : 0,
                "roughnessFactor" : 0.5527864098548889
            }
        }
    ],
    "meshes" : [
        {
            "name" : "Mesh.558",
            "primitives" : [
                {
                    "attributes" : {
                        "POSITION" : 0,
                        "NORMAL" : 1
                    },
                    "indices" : 2,
                    "material" : 0
                }
            ]
        },
        {
            "name" : "Mesh.674",
            "primitives" : [
                {
                    "attributes" : {
                        "POSITION" : 3,
                        "NORMAL" : 4
                    },
                    "indices" : 5,
                    "material" : 0
                }
            ]
        },
        {
            "name" : "Mesh.141",
            "primitives" : [
                {
                    "attributes" : {
                        "POSITION" : 6,
                        "NORMAL" : 7
                    },
                    "indices" : 8,
                    "material" : 0
                }
            ]
        },
        {
            "name" : "Mesh.140",
            "primitives" : [
                {
                    "attributes" : {
                        "POSITION" : 9,
                        "NORMAL" : 10
                    },
                    "indices" : 11,
                    "material" : 0
                }
            ]
        },
        {
            "name" : "Mesh.142",
            "primitives" : [
                {
                    "attributes" : {
                        "POSITION" : 12,
                        "NORMAL" : 13
                    },
                    "indices" : 8,
                    "material" : 0
                }
            ]
        },
        {
            "name" : "Mesh.143",
            "primitives" : [
                {
                    "attributes" : {
                        "POSITION" : 14,
                        "NORMAL" : 15
                    },
                    "indices" : 11,
                    "material" : 0
                }
            ]
        },
        {
            "name" : "Plane",
            "primitives" : [
                {
                    "attributes" : {
                        "POSITION" : 16,
                        "NORMAL" : 17,
                        "TEXCOORD_0" : 18
                    },
                    "indices" : 19,
                    "material" : 0
                }
            ]
        }
    ],
    "accessors" : [
        {
            "bufferView" : 0,
            "componentType" : 5126,
            "count" : 2263,
            "max" : [
                2.506852388381958,
                8.040403366088867,
                11.552251815795898
            ],
            "min" : [
                -4.104686737060547,
                2.713313579559326,
                -123.87661743164062
            ],
            "type" : "VEC3"
        },
        {
            "bufferView" : 1,
            "componentType" : 5126,
            "count" : 2263,
            "type" : "VEC3"
        },
        {
            "bufferView" : 2,
            "componentType" : 5123,
            "count" : 12186,
            "type" : "SCALAR"
        },
        {
            "bufferView" : 3,
            "componentType" : 5126,
            "count" : 9727,
            "max" : [
                1.841933250427246,
                8.580942153930664,
                20.04872703552246
            ],
            "min" : [
                -6.407187461853027,
                0.3557851016521454,
                4.622375011444092
            ],
            "type" : "VEC3"
        },
        {
            "bufferView" : 4,
            "componentType" : 5126,
            "count" : 9727,
            "type" : "VEC3"
        },
        {
            "bufferView" : 5,
            "componentType" : 5123,
            "count" : 50748,
            "type" : "SCALAR"
        },
        {
            "bufferView" : 6,
            "componentType" : 5126,
            "count" : 6137,
            "max" : [
                6.850468635559082,
                7.1676554679870605,
                -13.357891082763672
            ],
            "min" : [
                0.907322883605957,
                -1.023792028427124,
                -24.51755142211914
            ],
            "type" : "VEC3"
        },
        {
            "bufferView" : 7,
            "componentType" : 5126,
            "count" : 6137,
            "type" : "VEC3"
        },
        {
            "bufferView" : 8,
            "componentType" : 5123,
            "count" : 33024,
            "type" : "SCALAR"
        },
        {
            "bufferView" : 9,
            "componentType" : 5126,
            "count" : 6137,
            "max" : [
                -0.6851774454116821,
                7.167655944824219,
                -13.335451126098633
            ],
            "min" : [
                -6.910331726074219,
                -1.023792028427124,
                -24.37803840637207
            ],
            "type" : "VEC3"
        },
        {
            "bufferView" : 10,
            "componentType" : 5126,
            "count" : 6137,
            "type" : "VEC3"
        },
        {
            "bufferView" : 11,
            "componentType" : 5123,
            "count" : 33024,
            "type" : "SCALAR"
        },
        {
            "bufferView" : 12,
            "componentType" : 5126,
            "count" : 6137,
            "max" : [
                6.574587821960449,
                8.55184268951416,
                -53.991050720214844
            ],
            "min" : [
                1.3983607292175293,
                0.3679395616054535,
                -65.37767791748047
            ],
            "type" : "VEC3"
        },
        {
            "bufferView" : 13,
            "componentType" : 5126,
            "count" : 6137,
            "type" : "VEC3"
        },
        {
            "bufferView" : 14,
            "componentType" : 5126,
            "count" : 6137,
            "max" : [
                -1.1171990633010864,
                8.101766586303711,
                -53.96895217895508
            ],
            "min" : [
                -6.635860443115234,
                -0.2257513403892517,
                -65.25736236572266
            ],
            "type" : "VEC3"
        },
        {
            "bufferView" : 15,
            "componentType" : 5126,
            "count" : 6137,
            "type" : "VEC3"
        },
        {
            "bufferView" : 16,
            "componentType" : 5126,
            "count" : 144,
            "max" : [
                -1.5647977590560913,
                9.160813331604004,
                11.515777587890625
            ],
            "min" : [
                -1.5648130178451538,
                5.287923812866211,
                -117.24163055419922
            ],
            "type" : "VEC3"
        },
        {
            "bufferView" : 17,
            "componentType" : 5126,
            "count" : 144,
            "type" : "VEC3"
        },
        {
            "bufferView" : 18,
            "componentType" : 5126,
            "count" : 144,
            "type" : "VEC2"
        },
        {
            "bufferView" : 19,
            "componentType" : 5123,
            "count" : 216,
            "type" : "SCALAR"
        }
    ],
    "bufferViews" : [
        {
            "buffer" : 0,
            "byteLength" : 27156,
            "byteOffset" : 0
        },
        {
            "buffer" : 0,
            "byteLength" : 27156,
            "byteOffset" : 27156
        },
        {
            "buffer" : 0,
            "byteLength" : 24372,
            "byteOffset" : 54312
        },
        {
            "buffer" : 0,
            "byteLength" : 116724,
            "byteOffset" : 78684
        },
        {
            "buffer" : 0,
            "byteLength" : 116724,
            "byteOffset" : 195408
        },
        {
            "buffer" : 0,
            "byteLength" : 101496,
            "byteOffset" : 312132
        },
        {
            "buffer" : 0,
            "byteLength" : 73644,
            "byteOffset" : 413628
        },
        {
            "buffer" : 0,
            "byteLength" : 73644,
            "byteOffset" : 487272
        },
        {
            "buffer" : 0,
            "byteLength" : 66048,
            "byteOffset" : 560916
        },
        {
            "buffer" : 0,
            "byteLength" : 73644,
            "byteOffset" : 626964
        },
        {
            "buffer" : 0,
            "byteLength" : 73644,
            "byteOffset" : 700608
        },
        {
            "buffer" : 0,
            "byteLength" : 66048,
            "byteOffset" : 774252
        },
        {
            "buffer" : 0,
            "byteLength" : 73644,
            "byteOffset" : 840300
        },
        {
            "buffer" : 0,
            "byteLength" : 73644,
            "byteOffset" : 913944
        },
        {
            "buffer" : 0,
            "byteLength" : 73644,
            "byteOffset" : 987588
        },
        {
            "buffer" : 0,
            "byteLength" : 73644,
            "byteOffset" : 1061232
        },
        {
            "buffer" : 0,
            "byteLength" : 1728,
            "byteOffset" : 1134876
        },
        {
            "buffer" : 0,
            "byteLength" : 1728,
            "byteOffset" : 1136604
        },
        {
            "buffer" : 0,
            "byteLength" : 1152,
            "byteOffset" : 1138332
        },
        {
            "buffer" : 0,
            "byteLength" : 432,
            "byteOffset" : 1139484
        }
    ],
    "buffers" : [
        {
            "byteLength" : 1139916,
            "uri" : "data:application/octet-stream;base64,"
        }
    ]
}
