<?xml version="1.0" encoding="UTF-8" standalone="no"?>
<!-- Created with Inkscape (http://www.inkscape.org/) -->
<svg viewBox="0 0 124 127.57083" version="1.1" id="svg1" xml:space="preserve" xmlns:xlink="http://www.w3.org/1999/xlink" xmlns="http://www.w3.org/2000/svg" xmlns:svg="http://www.w3.org/2000/svg"><defs id="defs1"/><g id="layer2" transform="translate(-4.135833,-2.9971638)"><circle style="display:inline;fill:#000000;fill-opacity:1;stroke-width:0.322932" id="ear_r" cy="31.261747" cx="97.885834" r="28"/><circle style="display:inline;fill:#000000;fill-opacity:1;stroke-width:0.322932" id="ear_l" cy="30.997164" cx="35.179581" r="28"/></g><g id="layer3" transform="translate(-4.135833,-2.9971638)"><circle style="fill:#808080;fill-opacity:1;stroke-width:0.323;stroke-dasharray:none" id="face_shadow" cy="69.316353" cx="-144.90018" transform="translate(211.03601,-0.74835499)" r="60"/><path style="fill:#ffffff;stroke-width:0.322932" id="face_fill" d="m 124.13583,59.572159 a 58,58 0 0 1 -28.999997,50.229471 58,58 0 0 1 -58.000001,0 A 58,58 0 0 1 8.1358337,59.572159 H 66.135834 Z"/><path style="fill:#ffffff;stroke-width:0.322932" id="face_fill_2" d="M 7.9374847,64.55835 A 58,58 0 0 1 65.937485,6.5583496 58,58 0 0 1 123.93748,64.55835 H 65.937485 Z"/><ellipse style="fill:#808080;fill-opacity:1;stroke-width:0.323;stroke-dasharray:none" id="cheek_r" cy="63.968742" cx="109.74168" rx="10" ry="5"/><ellipse style="fill:#808080;fill-opacity:1;stroke-width:0.323;stroke-dasharray:none" id="cheek_l" cy="63.472908" cx="22.435356" rx="10" ry="5"/><circle style="fill:none;fill-opacity:1;stroke:#000000;stroke-width:4;stroke-dasharray:none;stroke-opacity:1" id="face_border" cy="69.316353" cx="-144.90018" transform="translate(211.03601,-0.74835499)" r="60"/></g><g id="layer4" transform="translate(-4.135833,-2.9971638)"><path id="eye_l" style="opacity:1;stroke:#000000;stroke-width:0.323001" d="M 44.533318,43.291087 C 37.274396,53.377012 27.728767,56.993979 21.67819,51.650745 16.472933,47.05401 19.555941,35.297435 29.325085,29.011126 c 10.247461,-6.5941 17.047144,-8.411431 20.090197,-6.002513 2.403679,1.902782 2.350483,10.233336 -4.881964,20.282474 z"/><circle style="opacity:1;fill:#ffffff;fill-opacity:1;stroke:#000000;stroke-width:0.323001;stroke-dasharray:none;stroke-opacity:1" id="iris_l" cx="41.126545" cy="31.749859" r="4.5"/><path id="eye_r" style="opacity:1;stroke:#000000;stroke-width:0.323001" d="m 88.448047,43.291087 c 7.258922,10.085925 16.804573,13.702892 22.855193,8.359658 5.20528,-4.596735 2.12226,-16.35331 -7.64694,-22.639619 -10.247481,-6.5941 -17.047164,-8.411431 -20.090217,-6.002513 -2.403679,1.902782 -2.350483,10.233336 4.881964,20.282474 z"/><circle style="opacity:1;fill:#ffffff;fill-opacity:1;stroke:#000000;stroke-width:0.323001;stroke-dasharray:none;stroke-opacity:1" id="iris_r" cx="-91.854836" cy="31.749859" r="4.5" transform="scale(-1,1)"/></g><g id="layer5" transform="translate(-4.135833,-2.9971638)"><path style="opacity:1;fill:#000000;fill-opacity:1;stroke:none;stroke-width:0.323001;stroke-dasharray:none;stroke-opacity:1" d="m 65.212216,42.771853 c 0,0 -2.140924,4.734118 -5.619496,5.702544 -3.47857,0.968425 -5.367131,1.964605 -9.459598,0.58335 -4.092469,-1.381254 -4.530733,-3.072958 -4.530733,-3.072958 0,0 -0.109855,0.933667 3.715084,1.561783 3.824938,0.628118 7.664569,0.414461 10.416122,-1.782916 2.751555,-2.197378 2.772777,-3.413268 3.355183,-4.619363 0.582404,-1.206096 2.123438,1.62756 2.123438,1.62756 z" id="lip_l"/><path style="fill:#000000;fill-opacity:1;stroke:none;stroke-width:0.323001;stroke-dasharray:none;stroke-opacity:1" d="m 67.703027,42.387641 c 0,0 2.140924,4.734118 5.619496,5.702544 3.47857,0.968425 5.367131,1.964605 9.459598,0.58335 4.092469,-1.381254 4.530733,-3.072958 4.530733,-3.072958 0,0 0.109855,0.933667 -3.715084,1.561783 -3.824938,0.628118 -7.664569,0.414461 -10.416122,-1.782916 -2.751555,-2.197378 -2.772777,-3.413268 -3.355183,-4.619363 -0.582404,-1.206096 -2.123438,1.62756 -2.123438,1.62756 z" id="lip_r"/><path id="nose" style="opacity:1;fill:#000000;fill-opacity:1;stroke:none;stroke-width:0.517783" d="m 74.262016,36.125935 c -10e-7,3.373527 -4.103858,7.03159 -7.826621,7.031589 -3.722762,0 -7.354517,-3.572447 -7.354517,-6.945973 -10e-7,-3.373528 3.965319,-5.430216 7.688082,-5.430216 3.722763,0 7.493056,1.971073 7.493056,5.3446 z"/></g></svg>