<?xml version="1.0" encoding="UTF-8"?><svg xmlns="http://www.w3.org/2000/svg" viewBox="0 0 1000 1000" x="0px" y="0px" width="1000px" height="1000px" version="1.1" xmlns:xlink="http://www.w3.org/1999/xlink"><g style="isolation:isolate"><g id="Layer_1" data-name="Layer 1"><path d="M775.82,308.32a25.956,25.956,0,0,0-18.39-7.61H601.56v-.01a25.991,25.991,0,0,1,0-51.98v-.01H645a26,26,0,1,0,0-52H389.56a26,26,0,1,0,0,52h55.38a26,26,0,1,1,0,52H266.89a26,26,0,1,0,0,52h70.78a26,26,0,1,1,0,52H307.74a26,26,0,1,0,0,52h98.65v52H330.37a26,26,0,1,0,0,52H468.94a26,26,0,1,1,0,52H391.47a26,26,0,1,0,0,52H688.11a26,26,0,1,0,0-52h-80.4a26,26,0,1,1,0-52h29.5a26,26,0,1,0,0-52H541.47a26,26,0,1,1,0-52H712.21a26,26,0,1,0,0-52H636.2a26,26,0,1,1,0-52H757.43a26.007,26.007,0,0,0,18.39-44.39ZM534.22,397.1a25.956,25.956,0,0,1-18.39,7.61H463.15a26,26,0,1,1,0-52h52.68a26.007,26.007,0,0,1,18.39,44.39Z" fill="#395d77" opacity="0.69"/><rect x="212.642" y="454.267" width="79.164" height="52" rx="26" fill="#825d7e" opacity="0.5"/><rect x="246.503" y="399.712" width="163.728" height="52" rx="26" fill="#684463"/><rect x="679.199" y="508.712" width="88.186" height="52" rx="26" transform="translate(1446.583 1069.425) rotate(-180)" fill="#395d77" opacity="0.69"/><rect x="755.026" y="404.712" width="64.404" height="52" rx="26" fill="#395d77" opacity="0.69"/><rect x="246.503" y="612.712" width="100.615" height="52" rx="26" transform="translate(593.62 1277.425) rotate(-180)" fill="#395d77" opacity="0.69"/><rect x="169.283" y="300.712" width="52" height="52" rx="26" transform="translate(390.566 653.425) rotate(-180)" fill="#395d77" opacity="0.69"/><rect x="98.841" y="687.48" width="802.318" height="25.991" rx="12.995" fill="#2d4659" opacity="0.56"/><rect x="435.698" y="599.48" width="20" height="100" fill="#8bbf98"/><rect x="455.698" y="599.48" width="12" height="100" fill="#63916e"/><rect x="547.698" y="599.48" width="20" height="100" fill="#8bbf98"/><rect x="567.698" y="599.48" width="12" height="100" fill="#63916e"/><rect x="631.698" y="599.48" width="20" height="100" fill="#8bbf98"/><rect x="651.698" y="599.48" width="12" height="100" fill="#63916e"/><rect x="716.062" y="619.48" width="12" height="80" fill="#8bbf98"/><rect x="728.062" y="619.48" width="8" height="80" fill="#63916e"/><rect x="792.029" y="619.48" width="12" height="80" fill="#8bbf98"/><rect x="804.029" y="619.48" width="8" height="80" fill="#63916e"/><rect x="804.029" y="619.48" width="8" height="4" fill="#55845f"/><rect x="792.029" y="619.48" width="12" height="4" fill="#63916e"/><rect x="761.385" y="507.48" width="12" height="192" fill="#8bbf98"/><rect x="773.385" y="507.48" width="8" height="192" fill="#63916e"/><rect x="837.351" y="507.48" width="12" height="192" fill="#8bbf98"/><rect x="849.351" y="507.48" width="8" height="192" fill="#63916e"/><path d="M407.551,375.48h23.6a6,6,0,0,1,6,6v160a6,6,0,0,1-6,6h-23.6a0,0,0,0,1,0,0v-172A0,0,0,0,1,407.551,375.48Z" fill="#ef6562"/><rect x="173.624" y="375.48" width="256" height="172" rx="6" fill="#ec958b"/><rect x="227.551" y="345.388" width="148" height="232" transform="translate(762.939 159.837) rotate(90)" fill="#34515b"/><rect x="113.051" y="459.888" width="148" height="3" transform="translate(648.439 274.337) rotate(90)" fill="#d84e4e"/><rect x="413.801" y="387.388" width="3.75" height="148" fill="#284249"/><rect x="304.164" y="547.48" width="18.22" height="152" fill="#d84e4e"/><rect x="296.551" y="547.48" width="18.22" height="152" fill="#ef6562"/><rect x="296.551" y="547.48" width="18.22" height="7.409" fill="#d84e4e"/><path d="M265.893,675.48H364.56a12,12,0,0,1,12,12v12a0,0,0,0,1,0,0H253.893a0,0,0,0,1,0,0v-12A12,12,0,0,1,265.893,675.48Z" fill="#ef6562"/><path d="M254.805,675.48h98.667a12,12,0,0,1,12,12v12a0,0,0,0,1,0,0H242.805a0,0,0,0,1,0,0v-12A12,12,0,0,1,254.805,675.48Z" fill="#ec958b"/><rect x="435.698" y="580.388" width="132" height="19.091" fill="#8bbf98"/><rect x="567.698" y="580.388" width="96" height="19.091" fill="#63916e"/><rect x="428.661" y="567.055" width="129.036" height="13.333" fill="#9fd6a3"/><rect x="435.698" y="580.388" width="132" height="4" fill="#63916e"/><rect x="557.698" y="567.055" width="115.558" height="13.333" fill="#83b78d"/><rect x="710.415" y="603.48" width="96" height="16" fill="#81b58c"/><rect x="806.4" y="603.48" width="56" height="16" fill="#63916e"/><rect x="773.385" y="517.347" width="63.967" height="36" fill="#81b58c"/><rect x="849.351" y="619.48" width="8" height="4" fill="#55845f"/><rect x="837.351" y="619.48" width="12" height="4" fill="#63916e"/><rect x="761.385" y="619.48" width="12" height="4" fill="#63916e"/><rect x="716.062" y="619.48" width="12" height="4" fill="#63916e"/><rect x="728.062" y="619.48" width="8" height="4" fill="#55845f"/><rect x="773.385" y="619.48" width="8.027" height="4" fill="#55845f"/><rect x="567.698" y="580.388" width="96" height="4" fill="#577f5d"/><rect x="600.998" y="453.635" width="9.426" height="84.833" transform="translate(-60.759 85.234) rotate(-7.666)" fill="#dd5858"/><rect x="596.538" y="456.152" width="10.604" height="22.288" transform="matrix(0.991, -0.133, 0.133, 0.991, -56.957, 84.461)" fill="#ef6562"/><rect x="593.419" y="459.036" width="2.046" height="1.424" transform="matrix(0.991, -0.133, 0.133, 0.991, -56.017, 83.406)" fill="#e8e8e8"/><path d="M594.576,460.421h1.461a0,0,0,0,1,0,0v15.012a.87.87,0,0,1-.87.87h-.591a0,0,0,0,1,0,0V460.421A0,0,0,0,1,594.576,460.421Z" transform="translate(-57.158 83.598) rotate(-7.666)" fill="#e8e8e8"/><rect x="598.686" y="478.336" width="9.426" height="1.08" transform="matrix(0.991, -0.133, 0.133, 0.991, -58.488, 84.772)" fill="#d35050"/><path d="M576.076,465.748h2.5a3,3,0,0,1,3,3v12.458a0,0,0,0,1,0,0h-8.5a0,0,0,0,1,0,0V468.748A3,3,0,0,1,576.076,465.748Z" transform="translate(-115.028 193.956) rotate(-17.371)" fill="#e8e8e8"/><rect x="576.589" y="480.358" width="12.583" height="21.75" transform="translate(-120.076 196.424) rotate(-17.371)" fill="#35393d"/><polygon points="578.997 500.73 588.756 488.385 586.682 481.755 576.923 494.1 578.997 500.73" fill="#808284"/><rect x="586.974" y="500.611" width="11.417" height="43.917" transform="translate(-128.984 200.78) rotate(-17.371)" fill="#3b4044"/><rect x="588.978" y="501.177" width="3.792" height="43.917" transform="translate(-129.236 200.266) rotate(-17.371)" fill="#6d6f70" opacity="0.66"/><polygon points="633.912 463.911 629.978 463.331 625.103 472.086 636.05 473.701 633.912 463.911" fill="#c5e1df"/><path d="M619.715,472.5H630.78a0,0,0,0,1,0,0v68.972a4.044,4.044,0,0,1-4.044,4.044h-2.978a4.044,4.044,0,0,1-4.044-4.044V472.5a0,0,0,0,1,0,0Z" transform="translate(81.006 -85.824) rotate(8.394)" fill="#b3dbad"/><path d="M619.758,471.9h2.869a0,0,0,0,1,0,0v73.015a0,0,0,0,1,0,0h-.772a2.1,2.1,0,0,1-2.1-2.1V471.9A0,0,0,0,1,619.758,471.9Z" transform="translate(80.876 -85.238) rotate(8.394)" fill="#68a575"/><path d="M627.867,473.1h2.869a0,0,0,0,1,0,0v70.918a2.1,2.1,0,0,1-2.1,2.1h-.772a0,0,0,0,1,0,0V473.1A0,0,0,0,1,627.867,473.1Z" transform="matrix(0.989, 0.146, -0.146, 0.989, 81.137, -86.409)" fill="#68a575"/><path d="M633.912,463.911l-.876-4.013a.548.548,0,0,0-1.059-.157l-2,3.59Z" fill="#6f5a66"/><polygon points="633.912 463.911 632.046 463.636 633.212 473.282 636.05 473.701 633.912 463.911" fill="#a5ceca"/><path d="M579.922,507.48h52a2,2,0,0,1,2,2v57.575a0,0,0,0,1,0,0h-56a0,0,0,0,1,0,0V509.48A2,2,0,0,1,579.922,507.48Z" fill="#f2e07c"/><path d="M625.922,507.48v59.575h8V509.48a2,2,0,0,0-2-2Z" fill="#dfbb4d"/><rect x="564.255" y="537.267" width="31.065" height="29.788" fill="#6e7ee0"/><rect x="564.255" y="537.267" width="3.442" height="29.788" fill="#7a8ce2"/><rect x="590.873" y="537.267" width="4.508" height="29.788" transform="translate(1186.255 1104.322) rotate(180)" fill="#6373c1"/><rect x="595.382" y="537.267" width="2.818" height="29.788" transform="translate(1193.581 1104.322) rotate(180)" fill="#dfbb4d"/><rect x="471.529" y="543.644" width="23.411" height="23.411" fill="#ec958b"/><rect x="471.529" y="543.644" width="23.411" height="1.073" fill="#ef6562"/><rect x="494.941" y="543.644" width="12.393" height="23.411" fill="#ef6562"/><path d="M485.688,558.748h-3.907l-.646,1.869h-2.066l3.527-9.823h2.291l3.528,9.823h-2.081Zm-1.953-5.678-1.42,4.1h2.839Z" fill="#fff"/><rect x="504.695" y="543.644" width="23.411" height="23.411" fill="#e8b58b"/><rect x="528.107" y="543.644" width="12.393" height="23.411" fill="#e09d6c"/><path d="M516.521,550.808c2.361,0,3.541,1.363,3.541,3.007a2.833,2.833,0,0,1-2.234,2.825l2.347,3.977H517.9l-2.165-3.822h-.926v3.822h-1.968v-9.809Zm-.071,1.63h-1.643v2.881h1.643c1.1,0,1.588-.576,1.588-1.462C518.038,552.986,517.547,552.438,516.45,552.438Z" fill="#fff"/><rect x="465.333" y="520.232" width="23.411" height="23.411" fill="#1bb1b2"/><rect x="488.744" y="520.232" width="12.393" height="23.411" fill="#19a5a1"/><path d="M480.194,527.4h2.094l-3.6,9.809H476.3l-3.6-9.809h2.108l2.7,7.8Z" fill="#fff"/><path d="M187.228,693.3a28,28,0,1,1-33-45.239Z" fill="#ef6562"/><path d="M154.228,648.058a28,28,0,0,1,33,45.239Z" fill="#f2e07c"/><path d="M174.884,642.986a28,28,0,0,1-14.062,53.882,28,28,0,1,0,14.062-53.882Z" fill="#a59a63" opacity="0.25" style="mix-blend-mode:multiply"/><path d="M278.9,472.444c.555-1.052,1.091-2.2,1.6-3.332s.987-2.3,1.441-3.465c.913-2.332,1.733-4.7,2.436-7.11q.279-.9.515-1.807l.482-1.816c.281-1.219.593-2.432.82-3.662.264-1.223.465-2.456.66-3.689.211-1.232.319-2.474.486-3.711l.1-.769.472-.442h0a3.6,3.6,0,0,1,2.183-1.03,3.874,3.874,0,0,1,2.124.454,7.886,7.886,0,0,1,2.232,1.869,25.008,25.008,0,0,1,2.69,3.963,75.048,75.048,0,0,1,3.89,8.2q1.708,4.161,3.113,8.413a82.107,82.107,0,0,1,2.434,8.666.95.95,0,0,1-1.846.449l0-.02a79.944,79.944,0,0,0-2.862-8.264c-1.087-2.722-2.261-5.411-3.529-8.042a71.783,71.783,0,0,0-4.168-7.6,21.539,21.539,0,0,0-2.474-3.237,4.207,4.207,0,0,0-1.185-.923c-.135-.059-.154-.012-.012-.011s.283-.1.242-.055h0l.575-1.211c-.173,1.3-.29,2.617-.511,3.911s-.418,2.6-.694,3.878c-.239,1.291-.564,2.561-.86,3.838l-.5,1.9q-.246.951-.538,1.889c-.736,2.515-1.591,4.991-2.546,7.431-.475,1.22-.983,2.43-1.511,3.632s-1.089,2.382-1.729,3.6a2,2,0,0,1-3.538-1.867h0Z" fill="#d1d1d1"/><path d="M280.435,459.4l25.036-2.557a1.638,1.638,0,0,1,.38,3.253L280.9,463.375a2,2,0,1,1-.52-3.966Z" fill="#d1d1d1"/><rect x="819.88" y="522.159" width="16.967" height="6" rx="3" fill="#8bbf98"/><rect x="810.857" y="531.451" width="18.047" height="6" rx="3" fill="#8bbf98"/><rect x="777.385" y="542.534" width="42.046" height="6" rx="3" fill="#8bbf98" opacity="0.74"/><rect x="255.521" y="681.48" width="28.979" height="6" rx="3" fill="#ef6562" opacity="0.23"/><rect x="294.521" y="681.48" width="12.729" height="6" rx="3" fill="#ef6562" opacity="0.23"/><rect x="324.25" y="688.98" width="32.75" height="6" rx="3" fill="#ef6562" opacity="0.23"/><rect x="335" y="688.98" width="11.25" height="6" rx="3" fill="#ef6562" opacity="0.23"/><rect x="789.189" y="531.451" width="11.25" height="6" rx="3" fill="#8bbf98"/><rect x="778.514" y="522.159" width="31.013" height="6" rx="3" fill="#8bbf98"/><rect x="449.65" y="586.625" width="24.096" height="3.309" rx="1.655" fill="#63916e" opacity="0.18"/><rect x="476.833" y="586.625" width="12.804" height="3.309" rx="1.655" fill="#63916e" opacity="0.18"/><rect x="478.722" y="592.375" width="23.807" height="3.309" rx="1.655" fill="#63916e" opacity="0.18"/><rect x="529.599" y="592.375" width="9.409" height="3.309" rx="1.655" fill="#63916e" opacity="0.18"/><rect x="535.796" y="587.542" width="9.409" height="3.309" rx="1.655" fill="#63916e" opacity="0.18"/><rect x="582.456" y="592.375" width="26.788" height="3.309" rx="1.655" fill="#8bbf98" opacity="0.26"/><rect x="633.333" y="592.375" width="9.409" height="3.309" rx="1.655" fill="#8bbf98" opacity="0.26"/><rect x="599.239" y="586.712" width="16.459" height="3.309" rx="1.655" fill="#8bbf98" opacity="0.26"/></g></g></svg>