<?xml version="1.0" encoding="UTF-8"?><svg id="Layer_1" data-name="Layer 1" xmlns="http://www.w3.org/2000/svg" viewBox="0 0 1000 1000" x="0px" y="0px" width="1000px" height="1000px" version="1.1" xmlns:xlink="http://www.w3.org/1999/xlink"><path d="M792.84,286.541a25.956,25.956,0,0,0-18.39-7.61H556.02a26,26,0,1,1,0-52h95.61a26,26,0,1,0,0-52H348.37a26,26,0,1,0,0,52h73.95a26,26,0,1,1,0,52H225.55a26,26,0,1,0,0,52H350.26a26,26,0,1,1,0,52H297.77a26,26,0,1,0,0,52h98.64v52H320.39a26,26,0,1,0,0,52h90.08a26,26,0,1,1,0,52H289.67a26,26,0,1,0,0,52H678.13a26,26,0,1,0,0-52H582.52a26,26,0,1,1,0-52h44.71a26,26,0,1,0,0-52H582.52a26,26,0,1,1,0-52H702.23a26,26,0,1,0,0-52H684.26a26,26,0,1,1,0-52h90.19a26.007,26.007,0,0,0,18.39-44.39Zm-218.6,88.78a25.915,25.915,0,0,1-18.38,7.61H444.14a26,26,0,1,1,0-52H555.86a26,26,0,0,1,18.38,44.39Z" fill="#825d7e" opacity="0.5"/><rect x="141.667" y="689.5" width="716.667" height="24" rx="12" fill="#3d233c" opacity="0.69"/><rect x="178.668" y="377.683" width="79.164" height="52" rx="26" fill="#825d7e" opacity="0.5"/><path d="M756.432,483.318h19.041A4.531,4.531,0,0,1,780,487.849v4.22a0,0,0,0,1,0,0H751.9a0,0,0,0,1,0,0v-4.22A4.531,4.531,0,0,1,756.432,483.318Z" fill="#96628a"/><path d="M777.073,483.318H774a2.742,2.742,0,0,1,2.932,2.5v6.249h3.074V485.82A2.743,2.743,0,0,0,777.073,483.318Z" fill="#84517a"/><rect x="746.014" y="492.069" width="39.877" height="43.431" rx="6.25" fill="#cc83b4"/><path d="M779.641,492.069h-4.583a6.25,6.25,0,0,1,6.25,6.25V529.25a6.25,6.25,0,0,1-6.25,6.25h4.583a6.25,6.25,0,0,0,6.25-6.25V498.319A6.25,6.25,0,0,0,779.641,492.069Z" fill="#bc71a7"/><rect x="424.863" y="226.5" width="38.137" height="64.5" fill="#ab8fb8"/><rect x="418.559" y="226.5" width="38.137" height="64.5" fill="#dfcce2"/><rect x="418.559" y="283.5" width="38.137" height="6.5" fill="#a380af" opacity="0.82"/><rect x="456.696" y="283.5" width="6.304" height="6.5" fill="#a380af" opacity="0.82"/><rect x="404.745" y="290" width="86.34" height="40.82" fill="#ab8fb8"/><polygon points="372.262 676.447 432.998 509.577 396.854 496.422 331.33 676.447 372.262 676.447" fill="#ac91ba"/><polygon points="356.556 676.447 417.292 509.577 381.148 496.422 315.624 676.447 356.556 676.447" fill="#dfcce2"/><polygon points="395.017 501.47 381.148 496.422 354.611 569.333 411.248 569.333 432.998 509.577 396.854 496.422 395.017 501.47" fill="#a380af" opacity="0.82"/><rect x="285.08" y="676.447" width="56.274" height="25.983" fill="#dfcce2"/><rect x="334.321" y="676.447" width="56.274" height="25.983" fill="#b39fc1"/><path d="M682.62,414.246l-7.423,1.962a2.326,2.326,0,0,0-1.537,2.248,89.609,89.609,0,0,0,1.416,20.674c3.327,19.223,11.833,42.215,24.345,62.925,1.55,2.566,4.477,1.792,4.557-1.2.644-24.187-3.321-48.38-9.928-66.737a89.583,89.583,0,0,0-8.984-18.673A2.325,2.325,0,0,0,682.62,414.246Z" fill="#f7cd84"/><path d="M694.05,434.114a89.583,89.583,0,0,0-8.984-18.673,2.325,2.325,0,0,0-2.446-1.195l-3.355.887c.839,1.064,1.755,2.306,2.7,3.739,0,0,1.392,2.2,2.761,4.644,7.81,13.934,10.82,26.681,13.323,37.621,1.786,7.808,2.455,13.3,3.794,24.3.465,3.821,1.666,14.206.417,18.1a2.617,2.617,0,0,0,1.717-2.684C704.622,476.664,700.657,452.471,694.05,434.114Z" fill="#f8b461"/><path d="M670.278,385.935a.368.368,0,0,0-.652-.261c-2.31,2.839-7.771,10.7-6.068,20.364.186,1.051,2.131,11.274,9.819,14.783a9.846,9.846,0,0,0,4.754.99c4.616-.344,8.794-4.558,9.776-9.086,1.268-5.848-2.835-12.032-7.154-14.542-2.226-1.294-4.176-1.419-6.817-3.873a11.017,11.017,0,0,1-3.4-5.25A9.534,9.534,0,0,1,670.278,385.935Z" fill="#6f5a66"/><path d="M680.753,398.183c-2.226-1.294-4.176-1.419-6.817-3.873a11.017,11.017,0,0,1-3.4-5.25,9.5,9.5,0,0,1-.268-3.034.389.389,0,0,0-.307-.412,10.263,10.263,0,0,0-.147,4.013,11.736,11.736,0,0,0,3.02,5.79c2.485,2.807,4.463,3.122,6.624,4.681,4.192,3.024,7.851,9.854,6.061,15.825a11.932,11.932,0,0,1-1.647,3.364,12.306,12.306,0,0,0,4.032-6.562C689.175,406.877,685.072,400.693,680.753,398.183Z" fill="#6b4c5f"/><path d="M673.936,394.31a11.013,11.013,0,0,1-3.4-5.25,9.528,9.528,0,0,1-.26-3.133.366.366,0,0,0-.651-.255c-2.125,2.612-6.911,9.486-6.33,18.1,0,0,.063.747.081.908v16.467a1.882,1.882,0,0,0,1.882,1.882h0a1.883,1.883,0,0,0,1.882-1.882V405.543a1.342,1.342,0,1,1,2.684,0v2.915a1.632,1.632,0,0,0,1.31,1.637,1.575,1.575,0,0,0,1.839-1.552v-1.051c0-1.19-.059-4.159,2.049-4.683,4.556-1.135,4.747-1.874,5.728-4.626h0C678.527,396.889,676.577,396.764,673.936,394.31Z" fill="#ed4a5e"/><rect x="781.884" y="551.5" width="10" height="150" transform="translate(1573.767 1253) rotate(-180)" fill="#de6173"/><rect x="769.884" y="551.5" width="12" height="150" transform="translate(1551.767 1253) rotate(-180)" fill="#f37f82"/><rect x="717.884" y="667.333" width="58" height="13" fill="#dd6b80"/><rect x="717.884" y="551.5" width="58" height="40" fill="#dd6b80"/><rect x="756.537" y="563.854" width="10.767" height="6" rx="3" fill="#f37f82" opacity="0.34"/><rect x="742.135" y="573.146" width="29.178" height="6" rx="3" fill="#f37f82" opacity="0.34"/><rect x="734.455" y="563.854" width="19.679" height="6" rx="3" fill="#f37f82" opacity="0.34"/><polygon points="397.473 583.261 385.029 617.45 490.58 617.45 490.58 583.261 397.473 583.261" fill="#d1b9d6"/><polygon points="397.473 583.261 385.029 617.45 391.848 617.45 404.292 583.261 397.473 583.261" fill="#a380af" opacity="0.87"/><polygon points="723.134 391.086 718.273 390.368 712.248 401.188 725.777 403.184 723.134 391.086" fill="#c5e1df"/><path d="M705.589,401.7h13.675a0,0,0,0,1,0,0v84.232a6,6,0,0,1-6,6h-1.675a6,6,0,0,1-6-6V401.7A0,0,0,0,1,705.589,401.7Z" transform="translate(72.861 -99.217) rotate(8.394)" fill="#f7cd84"/><path d="M705.643,400.964h3.545a0,0,0,0,1,0,0V491.2a0,0,0,0,1,0,0h0a3.545,3.545,0,0,1-3.545-3.545V400.964A0,0,0,0,1,705.643,400.964Z" transform="translate(72.7 -98.493) rotate(8.394)" fill="#f8b461"/><path d="M715.664,402.442h3.545a0,0,0,0,1,0,0v86.687a3.545,3.545,0,0,1-3.545,3.545h0a0,0,0,0,1,0,0V402.442A0,0,0,0,1,715.664,402.442Z" transform="translate(73.023 -99.94) rotate(8.394)" fill="#f8b461"/><path d="M723.134,391.086l-1.083-4.96a.677.677,0,0,0-1.309-.193l-2.469,4.435Z" fill="#6f5a66"/><polygon points="723.134 391.086 720.829 390.745 722.269 402.667 725.777 403.184 723.134 391.086" fill="#a5ceca"/><rect x="633.884" y="551.5" width="10" height="150" transform="translate(1277.767 1253) rotate(-180)" fill="#de6173"/><rect x="621.884" y="551.5" width="12" height="150" transform="translate(1255.767 1253) rotate(-180)" fill="#f37f82"/><rect x="717.884" y="551.5" width="10" height="150" transform="translate(1445.767 1253) rotate(-180)" fill="#de6173"/><rect x="705.884" y="551.5" width="12" height="150" transform="translate(1423.767 1253) rotate(-180)" fill="#f37f82"/><rect x="638.384" y="551.5" width="67.5" height="40" fill="#f37f82"/><rect x="638.384" y="667.333" width="67.5" height="13" fill="#f37f82"/><polygon points="553.47 676.447 487.947 496.422 451.803 509.577 512.539 676.447 553.47 676.447" fill="#ac91ba"/><polygon points="541.919 676.447 476.395 496.422 440.251 509.577 500.987 676.447 541.919 676.447" fill="#dfcce2"/><polygon points="487.947 496.422 477.746 500.135 476.395 496.422 440.251 509.577 462.001 569.333 514.484 569.333 487.947 496.422" fill="#a380af" opacity="0.82"/><path d="M295.651,529.536h8.358a0,0,0,0,1,0,0v27.509a0,0,0,0,1,0,0H284.777a0,0,0,0,1,0,0V540.41A10.874,10.874,0,0,1,295.651,529.536Z" fill="#ab8fb8"/><path d="M295.651,529.536H582.51a0,0,0,0,1,0,0v27.509a0,0,0,0,1,0,0H284.777a0,0,0,0,1,0,0V540.41A10.874,10.874,0,0,1,295.651,529.536Z" fill="#dfcce2"/><path d="M574.152,529.536h8.358a0,0,0,0,1,0,0v27.509a0,0,0,0,1,0,0H563.278a0,0,0,0,1,0,0V540.41A10.874,10.874,0,0,1,574.152,529.536Z" fill="#ab8fb8"/><rect x="324.527" y="330.82" width="240.382" height="198.716" fill="#ab8fb8"/><rect x="309.281" y="330.82" width="240.382" height="198.716" fill="#fffdff"/><path d="M452.793,416.306A28.983,28.983,0,0,0,442.2,405.712a29.3,29.3,0,0,0-29.223,0,28.993,28.993,0,0,0-10.6,10.594,29.3,29.3,0,0,0,0,29.223,28.983,28.983,0,0,0,10.594,10.594,29.3,29.3,0,0,0,29.224,0,28.965,28.965,0,0,0,10.593-10.594,29.3,29.3,0,0,0,0-29.223Zm-25.206-10.253A23.961,23.961,0,0,1,444,412.269l-.474.663a16.265,16.265,0,0,1-1.421,1.535,24.319,24.319,0,0,1-2.482,2.161,33.458,33.458,0,0,1-3.658,2.331,35.085,35.085,0,0,1-4.928,2.293,108.227,108.227,0,0,0-9.324-14.479A25.083,25.083,0,0,1,427.587,406.053Zm-19.482,9.437a24.531,24.531,0,0,1,8.869-7.049,130.415,130.415,0,0,1,9.249,14.327,89.921,89.921,0,0,1-22.97,3.032A24.587,24.587,0,0,1,408.105,415.49Zm-3.715,24.393a24.394,24.394,0,0,1-1.668-8.965,6.159,6.159,0,0,1,.038-.8,88.674,88.674,0,0,0,25.51-3.525q1.214,2.349,2.009,4.207a3.129,3.129,0,0,1-.493.17c-.228.064-.392.107-.494.133l-1.4.493a29.128,29.128,0,0,0-3.772,1.819q-2.331,1.29-4.946,3.071a33.846,33.846,0,0,0-5.4,4.72,31.752,31.752,0,0,0-4.681,6.31A24.9,24.9,0,0,1,404.39,439.883Zm23.2,15.9a24.4,24.4,0,0,1-15.844-5.686l.569.417a20.28,20.28,0,0,1,3.9-5.61,32.872,32.872,0,0,1,4.965-4.34,48.859,48.859,0,0,1,5.193-3.109Q429.179,436,430.2,435.6t1.63-.626l.076-.038h.076a102.432,102.432,0,0,1,5.306,18.876A24.854,24.854,0,0,1,427.587,455.783Zm20.924-11.429a24.828,24.828,0,0,1-7.012,7.183,106.8,106.8,0,0,0-4.852-17.776,35.79,35.79,0,0,1,15.5,1.1A24.518,24.518,0,0,1,448.511,444.354Zm3.561-13.777q-.378-.077-.947-.171c-.379-.062-.84-.139-1.384-.227s-1.15-.17-1.819-.246-1.384-.145-2.142-.209-1.567-.113-2.426-.151-1.731-.057-2.616-.057-1.813.025-2.785.076-1.913.139-2.823.265a4.58,4.58,0,0,1-.285-.626c-.113-.29-.2-.512-.245-.663q-.721-1.593-1.669-3.6a41.825,41.825,0,0,0,8.775-4.908,31.509,31.509,0,0,0,2.691-2.294,21.826,21.826,0,0,0,1.649-1.686q.379-.476.72-.929l.039-.038a24.315,24.315,0,0,1,5.647,15.54Z" fill="#ea3268"/><rect x="476.35" y="676.447" width="56.274" height="25.983" fill="#dfcce2"/><rect x="525.59" y="676.447" width="56.274" height="25.983" fill="#b39fc1"/><rect x="611.884" y="535.5" width="106" height="16" fill="#f37f82"/><rect x="717.884" y="535.5" width="80" height="16" fill="#de6173"/><rect x="638.384" y="551.5" width="67.5" height="5.545" fill="#e26971"/><rect x="709.884" y="569.5" width="40" height="4" transform="translate(158.384 1301.384) rotate(-90)" fill="#ce5f78"/><rect x="723.384" y="671.833" width="13" height="4" transform="translate(56.05 1403.717) rotate(-90)" fill="#ce5f78"/><rect x="729.884" y="551.5" width="46" height="5.545" transform="translate(1505.767 1108.545) rotate(-180)" fill="#ce5f78"/><rect x="705.884" y="551.5" width="12" height="0.563" fill="#e26971"/><rect x="621.884" y="551.5" width="12" height="0.563" fill="#e26971"/><circle cx="674.896" cy="572.516" r="5.5" fill="#e26971"/><circle cx="672.134" cy="572" r="5.5" fill="#633047"/><ellipse cx="670.509" cy="569.75" rx="2.115" ry="1.731" transform="translate(-47.947 61.795) rotate(-5.095)" fill="#f4cee1"/><rect x="687.167" y="559.708" width="16.967" height="6" rx="3" fill="#e26971" opacity="0.4"/><rect x="684.8" y="569" width="13.366" height="6" rx="3" fill="#e26971" opacity="0.4"/><rect x="642.755" y="580.083" width="42.046" height="6" rx="3" fill="#e26971" opacity="0.2"/><rect x="654.559" y="580.083" width="11.25" height="6" rx="3" fill="#e26971" opacity="0.39"/><rect x="643.884" y="559.708" width="31.013" height="6" rx="3" fill="#e26971" opacity="0.4"/><path d="M671.14,456.333h65.987a3,3,0,0,1,3,3V527.5a8,8,0,0,1-8,8H676.14a8,8,0,0,1-8-8V459.333A3,3,0,0,1,671.14,456.333Z" fill="#ea3268"/><path d="M723.16,456.333V527.5a8,8,0,0,1-8,8h16.967a8,8,0,0,0,8-8V459.333a3,3,0,0,0-3-3Z" fill="#aa235b" opacity="0.69"/><path d="M209.942,607.783h34.372a4.531,4.531,0,0,1,4.531,4.531V623.63a0,0,0,0,1,0,0H205.41a0,0,0,0,1,0,0V612.314A4.531,4.531,0,0,1,209.942,607.783Z" fill="#f8b461"/><path d="M244.314,607.783h-4.75a4.531,4.531,0,0,1,4.531,4.531V623.63h4.75V612.314A4.531,4.531,0,0,0,244.314,607.783Z" fill="#e29c50"/><rect x="196.313" y="623.63" width="61.63" height="78.652" rx="6.25" fill="#f7cd84"/><path d="M250.606,623.63h-8.217a7.337,7.337,0,0,1,7.337,7.337v63.979a7.337,7.337,0,0,1-7.337,7.337h8.217a7.337,7.337,0,0,0,7.337-7.337V630.967A7.337,7.337,0,0,0,250.606,623.63Z" fill="#f8b461"/><path d="M205.41,623.63h5.136a0,0,0,0,1,0,0v19.334a2.187,2.187,0,0,1-2.187,2.187H207.6a2.187,2.187,0,0,1-2.187-2.187V623.63a0,0,0,0,1,0,0Z" fill="#ed4a5e"/><rect x="210.546" y="623.63" width="5.136" height="7.043" fill="#ed4a5e"/><rect x="210.546" y="627.25" width="5.136" height="6.065" rx="2.187" fill="#f7cd84"/><path d="M215.682,623.63h5.136a0,0,0,0,1,0,0v7.889a2.187,2.187,0,0,1-2.187,2.187h-.761a2.187,2.187,0,0,1-2.187-2.187V623.63A0,0,0,0,1,215.682,623.63Z" fill="#ed4a5e"/><rect x="390.474" y="290" width="86.34" height="40.82" fill="#dfcce2"/><circle cx="439.762" cy="310.41" r="10.289" fill="#a380af" opacity="0.82"/><circle cx="437.095" cy="310.41" r="10.289" fill="#736177"/><rect x="196.313" y="648.87" width="61.63" height="26.217" fill="#ea3268"/><rect x="250.166" y="648.87" width="7.777" height="26.217" fill="#d33167"/><path d="M659.194,664.856a3.485,3.485,0,1,1,0-6.969H701.25V655.41H659.194a5.962,5.962,0,0,0,0,11.923H701.25v-2.477Z" fill="#ed4a5e"/><path d="M659.194,664.856a3.485,3.485,0,1,1,0-6.969h40.187v6.969Z" fill="#f4e1e4"/><rect x="682.354" y="657.887" width="17.027" height="6.969" fill="#442228" opacity="0.2"/><rect x="682.354" y="655.41" width="18.896" height="2.429" fill="#442228" opacity="0.2"/><rect x="682.354" y="664.856" width="18.896" height="2.429" fill="#442228" opacity="0.2"/><path d="M171.483,702.283a6.569,6.569,0,1,1,13.137,0Z" fill="#ed4a5e"/><path d="M181.336,702.283a3.285,3.285,0,1,1,6.569,0Z" fill="#e0445e"/></svg>